HIERARCHY
ROOT hip
{
	OFFSET 0.000000 0.000000 0.000000 
	CHANNELS 6 Xposition Yposition Zposition Xrotation Zrotation Yrotation
	JOINT abdomen
	{
		OFFSET 0.000000 3.402643 0.000000 
		CHANNELS 3 Xrotation Zrotation Yrotation
		JOINT chest
		{
			OFFSET 0.000000 8.438565 -0.680529 
			CHANNELS 3 Xrotation Zrotation Yrotation
			JOINT neck
			{
				OFFSET 0.000000 10.207942 -0.272212 
				CHANNELS 3 Xrotation Zrotation Yrotation
				JOINT head
				{
					OFFSET 0.000000 3.130431 0.000000 
					CHANNELS 3 Xrotation Zrotation Yrotation
					End Site
					{
						OFFSET 0.000000 3.130435 0.000000 
					}
				}
			}
			JOINT lCollar
			{
				OFFSET 3.470700 6.669187 -0.816635 
				CHANNELS 3 Yrotation Zrotation Xrotation
				JOINT lShldr
				{
					OFFSET 3.198488 0.000000 0.000000 
					CHANNELS 3 Zrotation Yrotation Xrotation
					JOINT lForeArm
					{
						OFFSET 10.139888 0.000000 0.000000 
						CHANNELS 3 Yrotation Zrotation Xrotation
						JOINT lHand
						{
							OFFSET 8.370511 0.000000 0.000000 
							CHANNELS 3 Zrotation Yrotation Xrotation
							End Site
							{
								OFFSET 4.083176 0.000000 0.000000 
							}
						}
					}
				}
			}
			JOINT rCollar
			{
				OFFSET -3.470700 6.669187 -0.816635 
				CHANNELS 3 Yrotation Zrotation Xrotation
				JOINT rShldr
				{
					OFFSET -3.198488 0.000000 0.000000 
					CHANNELS 3 Zrotation Yrotation Xrotation
					JOINT rForeArm
					{
						OFFSET -10.139888 0.000000 0.000000 
						CHANNELS 3 Yrotation Zrotation Xrotation
						JOINT rHand
						{
							OFFSET -8.370511 0.000000 0.000000 
							CHANNELS 3 Zrotation Yrotation Xrotation
							End Site
							{
								OFFSET -4.083176 0.000000 0.000000 
							}
						}
					}
				}
			}
		}
	}
	JOINT lThigh
	{
		OFFSET 5.308129 -1.633274 1.361059 
		CHANNELS 3 Xrotation Zrotation Yrotation
		JOINT lShin
		{
			OFFSET -2.041588 -20.007561 0.000000 
			CHANNELS 3 Xrotation Zrotation Yrotation
			JOINT lFoot
			{
				OFFSET 0.000000 -19.190928 -1.224953 
				CHANNELS 3 Xrotation Yrotation Zrotation
				End Site
				{
					OFFSET 0.000000 -2.449906 4.627600 
				}
			}
		}
	}
	JOINT rThigh
	{
		OFFSET -5.308129 -1.633274 1.361059 
		CHANNELS 3 Xrotation Zrotation Yrotation
		JOINT rShin
		{
			OFFSET 2.041588 -20.007561 0.000000 
			CHANNELS 3 Xrotation Zrotation Yrotation
			JOINT rFoot
			{
				OFFSET 0.000000 -19.190928 -1.224953 
				CHANNELS 3 Xrotation Yrotation Zrotation
				End Site
				{
					OFFSET 0.000000 -2.449906 4.627600 
				}
			}
		}
	}
}
MOTION
Frames: 8
Frame Time: 0.016667
-0.473244 44.559406 0.648373 0.205401 -3.212870 -3.976880 -21.278299 1.090660 0.906288 19.492201 0.087876 0.613617 18.137800 1.790370 -1.788130 12.581600 4.917260 -0.498055 2.000000 -2.000000 0.000000 -94.375603 10.856400 170.511002 37.764099 -0.322929 0.083785 0.045226 0.013792 -131.990005 -2.000000 2.000000 0.000000 92.376999 -15.947000 171.639008 -39.912498 0.319714 0.087723 -0.059093 -0.028768 -123.025002 13.609181 1.373092 -7.333098 -16.864140 7.763939 -1.366073 -3.009554 24.771824 1.028233 4.282690 3.179129 4.088912 3.535556 -4.205417 -0.125060 -17.897173 -9.832334 -3.113347 
-0.473934 44.559284 0.650508 0.205399 -3.203100 -3.976850 -21.278200 1.094090 0.915432 19.502001 0.097640 0.613437 18.034599 1.939590 -1.788820 12.533600 4.985590 -0.511689 2.000000 -2.000000 0.000000 -94.385399 10.856500 170.531006 37.705502 -0.323014 0.083674 0.045226 0.013792 -131.990005 -2.000000 2.000000 0.000000 92.386803 -15.947000 171.639008 -39.931999 0.319684 0.087759 -0.059073 -0.028688 -123.055000 13.571899 1.379840 -7.299907 -16.811678 7.736693 -1.360383 -3.046231 24.748049 1.054790 4.283197 3.178449 4.088870 3.535235 -4.205686 -0.125087 -17.923409 -9.825489 -3.112648 
-0.474375 44.557869 0.655199 0.205401 -3.212870 -3.967120 -21.356100 1.069880 0.934346 19.355499 0.029290 0.614625 18.009501 2.095740 -1.778920 12.505100 5.043990 -0.515388 2.000000 -2.000000 0.000000 -94.219299 10.524800 170.697998 36.435902 -0.324840 0.081257 0.045189 0.013357 -132.145996 -2.000000 2.000000 0.000000 92.484497 -16.073700 171.541000 -39.922298 0.319699 0.087741 -0.059099 -0.028794 -123.015999 13.511204 1.444368 -7.254801 -16.669441 7.598402 -1.352081 -3.151946 24.718334 1.119760 4.297575 3.191707 4.091929 3.523999 -4.202850 -0.134240 -17.916355 -9.818290 -3.107368 
-0.474815 44.556450 0.659887 0.205403 -3.222640 -3.957390 -21.443701 1.036570 0.956801 19.209000 -0.048815 0.626140 17.985201 2.251260 -1.779230 12.476700 5.112050 -0.527483 2.000000 -2.000000 0.000000 -94.053200 10.193200 170.863998 35.166401 -0.326612 0.078801 0.045153 0.012920 -132.302994 -2.000000 2.000000 0.000000 92.572403 -16.190701 171.453003 -39.922298 0.319699 0.087741 -0.059119 -0.028874 -122.986000 13.522314 1.445991 -7.235512 -16.684544 7.589312 -1.361426 -3.115962 24.695030 1.104326 4.305342 3.200674 4.073534 3.535553 -4.205422 -0.125060 -17.940428 -9.811405 -3.117898 
-0.474421 44.555161 0.663929 0.195622 -3.222640 -3.956840 -21.540899 1.001050 1.001150 19.033199 -0.136670 0.638400 18.170200 2.132390 -1.816180 12.534500 5.043540 -0.542109 2.000000 -2.000000 0.000000 -93.877296 9.822450 171.022003 33.974998 -0.328225 0.076460 0.045129 0.012621 -132.410004 -2.000000 2.000000 0.000000 92.679901 -16.346701 171.354996 -39.941799 0.319669 0.087777 -0.059139 -0.028954 -122.957001 13.594139 1.416528 -7.225483 -16.802473 7.662941 -1.377118 -3.027992 24.693811 1.063025 4.316692 3.201731 4.075259 3.523169 -4.203059 -0.124522 -17.945887 -9.801811 -3.111985 
-0.474025 44.553879 0.667968 0.195622 -3.222640 -3.956840 -21.638000 0.965577 1.045650 18.857401 -0.234272 0.651481 18.355801 2.013030 -1.863600 12.592300 4.975050 -0.547110 2.000000 -2.000000 0.000000 -93.691704 9.461490 171.179001 32.783600 -0.329789 0.074086 0.045106 0.012321 -132.518005 -2.000000 2.000000 0.000000 92.787498 -16.512501 171.266998 -39.961300 0.319639 0.087812 -0.059152 -0.029007 -122.936996 13.746765 1.331718 -7.240752 -17.094379 7.900198 -1.406788 -2.793079 24.717634 0.914768 4.319798 3.197586 4.074974 3.535603 -4.205378 -0.125056 -17.960764 -9.791442 -3.119523 
-0.473262 44.554520 0.674145 0.205405 -3.232400 -3.957430 -21.657600 0.965510 1.045480 18.828100 -0.244030 0.661661 18.365000 2.013370 -1.852920 12.592300 4.975050 -0.547110 2.000000 -2.000000 0.000000 86.669296 170.720993 -7.580650 32.314800 -0.330391 0.073143 0.044884 0.008992 -133.709000 -2.000000 2.000000 0.000000 92.797203 -16.541800 171.266998 -39.971100 0.319624 0.087830 -0.059159 -0.029033 -122.928001 13.717278 1.358632 -7.214263 -17.029325 7.829659 -1.402094 -2.842926 24.683577 0.942718 4.316867 3.201489 4.075245 3.536095 -4.204948 -0.125014 -17.950539 -9.793627 -3.108672 
-0.472497 44.555294 0.680319 0.215188 -3.242160 -3.958020 -21.686899 0.977911 1.050760 18.798800 -0.244026 0.661786 18.364500 2.023300 -1.840120 12.592300 4.975050 -0.547110 2.000000 -2.000000 0.000000 87.020599 170.914001 -6.349730 31.846001 -0.330985 0.072196 0.044732 0.005659 -134.899994 -2.000000 2.000000 0.000000 92.797302 -16.580900 171.276993 -39.980900 0.319609 0.087848 -0.059159 -0.029033 -122.928001 13.583868 1.455563 -7.188487 -16.781801 7.612629 -1.368230 -3.020061 24.651045 1.063105 4.300696 3.206904 4.073911 3.542130 -4.199893 -0.124496 -17.936110 -9.776005 -3.107236 
